<svg xmlns="http://www.w3.org/2000/svg" width="35.999" height="33.75" viewBox="0 0 35.999 33.75">
  <g id="heart" transform="translate(0 0)">
    <path id="Path_8" data-name="Path 8" d="M18,6.183,16.387,4.525C12.6.632,5.656,1.976,3.15,6.869c-1.177,2.3-1.442,5.625.707,9.866,2.07,4.084,6.377,8.975,14.143,14.3,7.767-5.328,12.071-10.22,14.143-14.3,2.149-4.244,1.885-7.565.707-9.866C30.344,1.976,23.4.63,19.613,4.522ZM18,33.75c-34.5-22.8-10.622-40.59-.4-31.178.135.124.268.252.4.385q.19-.2.4-.383C28.62-6.845,52.5,10.951,18,33.75Z" fill-rule="evenodd"/>
  </g>
</svg>
