<svg xmlns="http://www.w3.org/2000/svg" width="36" height="36" viewBox="0 0 36 36">
  <path id="Icon_simple-sentiayoga" data-name="Icon simple-sentiayoga" d="M18,30.427a26.108,26.108,0,0,1-2.961,2.126A15.408,15.408,0,0,0,18,36a15.367,15.367,0,0,0,2.961-3.447A25.635,25.635,0,0,1,18,30.427Zm9.72-4.459A17.094,17.094,0,0,1,27,33.59a17.052,17.052,0,0,1-6.952-3.184A12.584,12.584,0,0,0,27.72,25.97Zm-19.44,0a12.578,12.578,0,0,0,7.673,4.439A17.052,17.052,0,0,1,9,33.59a17.084,17.084,0,0,1-.72-7.621Zm18.506-.941a11.259,11.259,0,0,1-7.1,4.1,28.229,28.229,0,0,0,2.885-3.206,28.564,28.564,0,0,0,4.214-.9Zm-17.573,0a28.157,28.157,0,0,0,4.214.893,28.012,28.012,0,0,0,2.885,3.2,11.239,11.239,0,0,1-7.1-4.1Zm4.9-13.757A29.38,29.38,0,0,1,18,7a29.363,29.363,0,0,1,3.886,4.271A29.5,29.5,0,0,1,27.529,12.5,29.975,29.975,0,0,1,25.774,18a29.866,29.866,0,0,1,1.755,5.5,29.637,29.637,0,0,1-5.643,1.231A29.608,29.608,0,0,1,18,29a29.363,29.363,0,0,1-3.886-4.27A29.5,29.5,0,0,1,8.471,23.5,29.975,29.975,0,0,1,10.226,18a29.866,29.866,0,0,1-1.755-5.5,29.637,29.637,0,0,1,5.643-1.231ZM3.915,22.712A15.5,15.5,0,0,0,2.412,27a15.438,15.438,0,0,0,4.466.842,25.245,25.245,0,0,1,.36-3.629,24.833,24.833,0,0,1-3.321-1.5Zm28.17,0a25.455,25.455,0,0,1-3.323,1.5,25.308,25.308,0,0,1,.36,3.632A15.514,15.514,0,0,0,33.588,27a15.37,15.37,0,0,0-1.508-4.288Zm-2.317-9.144A17.057,17.057,0,0,1,36,18a17.057,17.057,0,0,1-6.233,4.432,12.648,12.648,0,0,0,0-8.865Zm-23.535,0a12.648,12.648,0,0,0,0,8.865A17.066,17.066,0,0,1,0,18,17.057,17.057,0,0,1,6.233,13.568Zm22.246.331a11.286,11.286,0,0,1,0,8.2A28.355,28.355,0,0,0,27.144,18a28.355,28.355,0,0,0,1.334-4.1Zm-20.956,0A28.355,28.355,0,0,0,8.856,18a28.354,28.354,0,0,0-1.334,4.1,11.286,11.286,0,0,1,0-8.2ZM6.878,8.161A15.514,15.514,0,0,0,2.412,9a15.37,15.37,0,0,0,1.507,4.288,25.392,25.392,0,0,1,3.319-1.5,25.308,25.308,0,0,1-.36-3.632Zm22.244,0a25.247,25.247,0,0,1-.36,3.627,24.834,24.834,0,0,1,3.321,1.5A15.5,15.5,0,0,0,33.586,9a15.437,15.437,0,0,0-4.466-.841ZM19.688,6.878a11.233,11.233,0,0,1,7.1,4.095,28.44,28.44,0,0,0-4.214-.891,28.012,28.012,0,0,0-2.885-3.2Zm-3.375,0a28.012,28.012,0,0,0-2.885,3.2,28.564,28.564,0,0,0-4.214.9,11.259,11.259,0,0,1,7.1-4.1ZM20.048,5.6A17.052,17.052,0,0,1,27,2.412a17.084,17.084,0,0,1,.72,7.621,12.577,12.577,0,0,0-7.672-4.439ZM8.28,10.035A17.114,17.114,0,0,1,9,2.407a17.052,17.052,0,0,1,6.952,3.184A12.584,12.584,0,0,0,8.28,10.028ZM20.963,3.442A15.547,15.547,0,0,0,18,0a15.368,15.368,0,0,0-2.961,3.447A25.635,25.635,0,0,1,18,5.573a26.108,26.108,0,0,1,2.961-2.126Z"/>
</svg>
