<svg xmlns="http://www.w3.org/2000/svg" width="31.5" height="31.264" viewBox="0 0 31.5 31.264">
  <g id="music-note-beamed" transform="translate(-2.25 -2.486)">
    <path id="Path_10" data-name="Path 10" d="M13.5,29.25c0,2.486-2.52,4.5-5.625,4.5S2.25,31.736,2.25,29.25s2.52-4.5,5.625-4.5S13.5,26.766,13.5,29.25Zm20.25-4.5c0,2.486-2.52,4.5-5.625,4.5S22.5,27.236,22.5,24.75s2.52-4.5,5.625-4.5S33.75,22.264,33.75,24.75Z"/>
    <path id="Path_11" data-name="Path 11" d="M31.5,24.75V4.5h2.25V24.75Zm-18-18v22.5H11.25V6.75Z" fill-rule="evenodd"/>
    <path id="Path_12" data-name="Path 12" d="M11.25,6.536A2.25,2.25,0,0,1,13.275,4.3l18-1.8A2.25,2.25,0,0,1,33.75,4.736V6.75L11.25,9Z"/>
  </g>
</svg>
