<svg xmlns="http://www.w3.org/2000/svg" width="35.771" height="29.288" viewBox="0 0 35.771 29.288">
  <path id="aspect-ratio-alt" d="M29.288,14.644v8.161H21.127v-3.28h4.881V14.644h3.28ZM9.763,9.763v4.881H6.483V6.483h8.161v3.28H9.763ZM32.568,0a3.077,3.077,0,0,1,2.25.953,3.166,3.166,0,0,1,.953,2.327V26.009a3.165,3.165,0,0,1-.953,2.326,3.077,3.077,0,0,1-2.25.953H3.28a3.165,3.165,0,0,1-2.326-.953A3.169,3.169,0,0,1,0,26.008V3.28A3.165,3.165,0,0,1,.953.954,3.169,3.169,0,0,1,3.28,0Zm0,26.085V3.2H3.28V26.084H32.568Z"/>
</svg>
